{
  "accessors": [
    {
      "bufferView": 2,
      "componentType": 5126,
      "count": 6421,
      "max": [
        30.197500228881836,
        68.102996826171875,
        39.5
      ],
      "min": [
        -30.028099060058594,
        22.313600540161133,
        -39.5
      ],
      "type": "VEC3"
    },
    {
      "bufferView": 2,
      "byteOffset": 77052,
      "componentType": 5126,
      "count": 6421,
      "max": [
        1,
        0.99995756149291992,
        0.99983179569244385
      ],
      "min": [
        -0.99999988079071045,
        -0.99994337558746338,
        -0.99923431873321533
      ],
      "type": "VEC3"
    },
    {
      "bufferView": 1,
      "componentType": 5126,
      "count": 6421,
      "max": [
        2.4470000267028809,
        2.4242000579833984
      ],
      "min": [
        -1.5283000469207764,
        -1.6270999908447266
      ],
      "type": "VEC2"
    },
    {
      "bufferView": 0,
      "componentType": 5125,
      "count": 35628,
      "max": [
        6420
      ],
      "min": [
        0
      ],
      "type": "SCALAR"
    },
    {
      "bufferView": 2,
      "byteOffset": 154104,
      "componentType": 5126,
      "count": 13839,
      "max": [
        34,
        61.723499298095703,
        35.540199279785156
      ],
      "min": [
        -34,
        0.10300000011920929,
        -39.236499786376953
      ],
      "type": "VEC3"
    },
    {
      "bufferView": 2,
      "byteOffset": 320172,
      "componentType": 5126,
      "count": 13839,
      "max": [
        1,
        1,
        0.9999997615814209
      ],
      "min": [
        -1,
        -1,
        -0.9999997615814209
      ],
      "type": "VEC3"
    },
    {
      "bufferView": 1,
      "byteOffset": 51368,
      "componentType": 5126,
      "count": 13839,
      "max": [
        1.2137999534606934,
        1.1233999729156494
      ],
      "min": [
        -0.42840000987052917,
        -0.12070000171661377
      ],
      "type": "VEC2"
    },
    {
      "bufferView": 0,
      "byteOffset": 142512,
      "componentType": 5125,
      "count": 68952,
      "max": [
        13838
      ],
      "min": [
        0
      ],
      "type": "SCALAR"
    }
  ],
  "asset": {
    "extras": {
      "author": "truong365 (https://sketchfab.com/truong365)",
      "license": "CC-BY-4.0 (http://creativecommons.org/licenses/by/4.0/)",
      "source": "https://sketchfab.com/3d-models/arm-chair-3623e110f9bb43f485cc805bb42e97ad",
      "title": "Arm chair"
    },
    "generator": "Sketchfab-9.61.0",
    "version": "2.0"
  },
  "bufferViews": [
    {
      "buffer": 0,
      "byteLength": 418320,
      "byteOffset": 0,
      "name": "floatBufferViews",
      "target": 34963
    },
    {
      "buffer": 0,
      "byteLength": 162080,
      "byteOffset": 418320,
      "byteStride": 8,
      "name": "floatBufferViews",
      "target": 34962
    },
    {
      "buffer": 0,
      "byteLength": 486240,
      "byteOffset": 580400,
      "byteStride": 12,
      "name": "floatBufferViews",
      "target": 34962
    }
  ],
  "buffers": [
    {
      "byteLength": 1066640,
      "uri": "scene.bin"
    }
  ],
  "materials": [
    {
      "doubleSided": true,
      "emissiveFactor": [
        0,
        0,
        0
      ],
      "name": "etelinteriores_dinamarquesa_mat2_mtl_1",
      "pbrMetallicRoughness": {
        "baseColorFactor": [
          1,
          1,
          1,
          1
        ],
        "metallicFactor": 0,
        "roughnessFactor": 0.89459100000000003
      }
    },
    {
      "doubleSided": true,
      "emissiveFactor": [
        0,
        0,
        0
      ],
      "name": "etelinteriores_dinamarquesa_mat2_mtl_2",
      "pbrMetallicRoughness": {
        "baseColorFactor": [
          1,
          1,
          1,
          1
        ],
        "metallicFactor": 0,
        "roughnessFactor": 0.89459100000000003
      }
    }
  ],
  "meshes": [
    {
      "primitives": [
        {
          "attributes": {
            "NORMAL": 1,
            "POSITION": 0,
            "TEXCOORD_0": 2
          },
          "indices": 3,
          "material": 0,
          "mode": 4
        }
      ]
    },
    {
      "primitives": [
        {
          "attributes": {
            "NORMAL": 5,
            "POSITION": 4,
            "TEXCOORD_0": 6
          },
          "indices": 7,
          "material": 1,
          "mode": 4
        }
      ]
    }
  ],
  "nodes": [
    {
      "children": [
        1
      ],
      "name": "RootNode (gltf orientation matrix)",
      "rotation": [
        -0.70710678118654746,
        -0,
        -0,
        0.70710678118654757
      ]
    },
    {
      "children": [
        2
      ],
      "name": "RootNode (model correction matrix)"
    },
    {
      "children": [
        3
      ],
      "name": "root"
    },
    {
      "children": [
        4
      ],
      "matrix": [
        1,
        0,
        0,
        0,
        0,
        2.2204460492503131e-16,
        1,
        0,
        0,
        -1,
        2.2204460492503131e-16,
        0,
        0,
        0,
        0,
        1
      ],
      "name": "GLTF_SceneRootNode"
    },
    {
      "children": [
        5,
        6
      ],
      "matrix": [
        0.0099999997764825821,
        0,
        0,
        0,
        0,
        0.0099999997764825821,
        0,
        0,
        0,
        0,
        0.0099999997764825821,
        0,
        0,
        0,
        0,
        1
      ],
      "name": "etelinteriores_dinamarquesa_mat(2)_0"
    },
    {
      "mesh": 0,
      "name": ""
    },
    {
      "mesh": 1,
      "name": ""
    }
  ],
  "scene": 0,
  "scenes": [
    {
      "name": "OSG_Scene",
      "nodes": [
        0
      ]
    }
  ]
}

