{
  "accessors": [
    {
      "bufferView": 2,
      "componentType": 5126,
      "count": 5808,
      "max": [
        1.8929219245910645,
        13.923686981201172,
        2.277101516723633
      ],
      "min": [
        -1.8929219245910645,
        13.745680809020996,
        -3.267287254333496
      ],
      "type": "VEC3"
    },
    {
      "bufferView": 2,
      "byteOffset": 69696,
      "componentType": 5126,
      "count": 5808,
      "max": [
        1.0,
        1.0,
        1.0
      ],
      "min": [
        -1.0,
        -1.0,
        -1.0
      ],
      "type": "VEC3"
    },
    {
      "bufferView": 1,
      "componentType": 5126,
      "count": 5808,
      "max": [
        2.1084330081939697,
        3.6857190132141113
      ],
      "min": [
        -0.41276198625564575,
        -0.06433700025081635
      ],
      "type": "VEC2"
    },
    {
      "bufferView": 0,
      "componentType": 5125,
      "count": 17964,
      "type": "SCALAR"
    },
    {
      "bufferView": 2,
      "byteOffset": 139392,
      "componentType": 5126,
      "count": 65532,
      "max": [
        3.3017590045928955,
        13.784323692321777,
        2.853175163269043
      ],
      "min": [
        -3.301259994506836,
        13.488914489746094,
        -3.8190224170684814
      ],
      "type": "VEC3"
    },
    {
      "bufferView": 2,
      "byteOffset": 925776,
      "componentType": 5126,
      "count": 65532,
      "max": [
        0.9999957084655762,
        1.0,
        0.9987541437149048
      ],
      "min": [
        -0.9999957084655762,
        -0.999999463558197,
        -0.9944893717765808
      ],
      "type": "VEC3"
    },
    {
      "bufferView": 1,
      "byteOffset": 46464,
      "componentType": 5126,
      "count": 65532,
      "max": [
        2.9457390308380127,
        0.9999889731407166
      ],
      "min": [
        -0.49997198581695557,
        0.0
      ],
      "type": "VEC2"
    },
    {
      "bufferView": 0,
      "byteOffset": 71856,
      "componentType": 5125,
      "count": 99090,
      "type": "SCALAR"
    },
    {
      "bufferView": 2,
      "byteOffset": 1712160,
      "componentType": 5126,
      "count": 65534,
      "max": [
        3.3015685081481934,
        13.78458309173584,
        2.852682113647461
      ],
      "min": [
        -3.301018238067627,
        13.434579849243164,
        -3.8195152282714844
      ],
      "type": "VEC3"
    },
    {
      "bufferView": 2,
      "byteOffset": 2498568,
      "componentType": 5126,
      "count": 65534,
      "max": [
        0.999913215637207,
        1.0,
        0.9997557401657104
      ],
      "min": [
        -1.0,
        -0.9999996423721313,
        -0.9997580051422119
      ],
      "type": "VEC3"
    },
    {
      "bufferView": 1,
      "byteOffset": 570720,
      "componentType": 5126,
      "count": 65534,
      "max": [
        2.4297518730163574,
        0.9999991059303284
      ],
      "min": [
        -0.49997150897979736,
        0.0
      ],
      "type": "VEC2"
    },
    {
      "bufferView": 0,
      "byteOffset": 468216,
      "componentType": 5125,
      "count": 99063,
      "type": "SCALAR"
    },
    {
      "bufferView": 2,
      "byteOffset": 3284976,
      "componentType": 5126,
      "count": 47473,
      "max": [
        3.2645130157470703,
        13.78458309173584,
        2.8533565998077393
      ],
      "min": [
        -3.301259994506836,
        13.484199523925781,
        -3.8196969032287598
      ],
      "type": "VEC3"
    },
    {
      "bufferView": 2,
      "byteOffset": 3854652,
      "componentType": 5126,
      "count": 47473,
      "max": [
        1.0,
        1.0,
        0.9997583627700806
      ],
      "min": [
        -1.0,
        -0.9753646850585938,
        -0.9997577667236328
      ],
      "type": "VEC3"
    },
    {
      "bufferView": 1,
      "byteOffset": 1094992,
      "componentType": 5126,
      "count": 47473,
      "max": [
        1.5000289678573608,
        0.9999991059303284
      ],
      "min": [
        -0.49997198581695557,
        0.0
      ],
      "type": "VEC2"
    },
    {
      "bufferView": 0,
      "byteOffset": 864468,
      "componentType": 5125,
      "count": 71223,
      "type": "SCALAR"
    },
    {
      "bufferView": 2,
      "byteOffset": 4424328,
      "componentType": 5126,
      "count": 15064,
      "max": [
        3.751298666000366,
        13.530616760253906,
        3.2981691360473633
      ],
      "min": [
        -3.751298666000366,
        0.38885068893432617,
        -4.264273643493652
      ],
      "type": "VEC3"
    },
    {
      "bufferView": 2,
      "byteOffset": 4605096,
      "componentType": 5126,
      "count": 15064,
      "max": [
        1.0,
        0.9999991655349731,
        0.9999999403953552
      ],
      "min": [
        -1.0,
        -0.9999156594276428,
        -1.0
      ],
      "type": "VEC3"
    },
    {
      "bufferView": 1,
      "byteOffset": 1474776,
      "componentType": 5126,
      "count": 15064,
      "max": [
        0.7994875907897949,
        1.0968937873840332
      ],
      "min": [
        -0.19986958801746368,
        -0.006927430629730225
      ],
      "type": "VEC2"
    },
    {
      "bufferView": 0,
      "byteOffset": 1149360,
      "componentType": 5125,
      "count": 82128,
      "type": "SCALAR"
    },
    {
      "bufferView": 2,
      "byteOffset": 4785864,
      "componentType": 5126,
      "count": 3315,
      "max": [
        2.932255744934082,
        0.6333674192428589,
        2.51599383354187
      ],
      "min": [
        -2.9289209842681885,
        0.17238232493400574,
        -3.4641597270965576
      ],
      "type": "VEC3"
    },
    {
      "bufferView": 2,
      "byteOffset": 4825644,
      "componentType": 5126,
      "count": 3315,
      "max": [
        0.9985690712928772,
        0.9999986886978149,
        0.9963418245315552
      ],
      "min": [
        -0.9987655878067017,
        -0.9999037981033325,
        -0.9990179538726807
      ],
      "type": "VEC3"
    },
    {
      "bufferView": 1,
      "byteOffset": 1595288,
      "componentType": 5126,
      "count": 3315,
      "max": [
        1.5554089546203613,
        0.02601199969649315
      ],
      "min": [
        -0.49956798553466797,
        2.0312500055297278e-06
      ],
      "type": "VEC2"
    },
    {
      "bufferView": 0,
      "byteOffset": 1477872,
      "componentType": 5125,
      "count": 19152,
      "type": "SCALAR"
    }
  ],
  "asset": {
    "extras": {
      "author": "foreverautumn97 (https://sketchfab.com/foreverautumn97)",
      "license": "CC-BY-4.0 (http://creativecommons.org/licenses/by/4.0/)",
      "source": "https://sketchfab.com/3d-models/soda-can-45d76185eaa94296aa68c29abd8dcda0",
      "title": "Soda Can"
    },
    "generator": "Sketchfab-11.53.2",
    "version": "2.0"
  },
  "bufferViews": [
    {
      "buffer": 0,
      "byteLength": 1554480,
      "name": "floatBufferViews",
      "target": 34963
    },
    {
      "buffer": 0,
      "byteLength": 1621808,
      "byteOffset": 1554480,
      "byteStride": 8,
      "name": "floatBufferViews",
      "target": 34962
    },
    {
      "buffer": 0,
      "byteLength": 4865424,
      "byteOffset": 3176288,
      "byteStride": 12,
      "name": "floatBufferViews",
      "target": 34962
    }
  ],
  "buffers": [
    {
      "byteLength": 8041712,
      "uri": "scene.bin"
    }
  ],
  "images": [
    {
      "uri": "textures/material_baseColor.jpeg"
    }
  ],
  "materials": [
    {
      "doubleSided": true,
      "name": "metal",
      "pbrMetallicRoughness": {
        "baseColorFactor": [
          0.4245480911296354,
          0.4245480911296354,
          0.4245480911296354,
          1.0
        ],
        "metallicFactor": 0.5732463260553661,
        "roughnessFactor": 0.0422948505
      }
    },
    {
      "doubleSided": true,
      "name": "material",
      "pbrMetallicRoughness": {
        "baseColorTexture": {
          "index": 0
        },
        "metallicFactor": 0.0,
        "roughnessFactor": 0.0422948505
      }
    }
  ],
  "meshes": [
    {
      "name": "polySurface118.001_metal_0",
      "primitives": [
        {
          "attributes": {
            "NORMAL": 1,
            "POSITION": 0,
            "TEXCOORD_0": 2
          },
          "indices": 3,
          "material": 0,
          "mode": 4
        }
      ]
    },
    {
      "name": "polySurface118_metal_0",
      "primitives": [
        {
          "attributes": {
            "NORMAL": 5,
            "POSITION": 4,
            "TEXCOORD_0": 6
          },
          "indices": 7,
          "material": 0,
          "mode": 4
        }
      ]
    },
    {
      "name": "polySurface118_metal_0",
      "primitives": [
        {
          "attributes": {
            "NORMAL": 9,
            "POSITION": 8,
            "TEXCOORD_0": 10
          },
          "indices": 11,
          "material": 0,
          "mode": 4
        }
      ]
    },
    {
      "name": "polySurface118_metal_0",
      "primitives": [
        {
          "attributes": {
            "NORMAL": 13,
            "POSITION": 12,
            "TEXCOORD_0": 14
          },
          "indices": 15,
          "material": 0,
          "mode": 4
        }
      ]
    },
    {
      "name": "polySurface661 polySurface258 can_can_0",
      "primitives": [
        {
          "attributes": {
            "NORMAL": 17,
            "POSITION": 16,
            "TEXCOORD_0": 18
          },
          "indices": 19,
          "material": 1,
          "mode": 4
        }
      ]
    },
    {
      "name": "polySurface847_metal_0",
      "primitives": [
        {
          "attributes": {
            "NORMAL": 21,
            "POSITION": 20,
            "TEXCOORD_0": 22
          },
          "indices": 23,
          "material": 0,
          "mode": 4
        }
      ]
    }
  ],
  "nodes": [
    {
      "children": [
        1
      ],
      "matrix": [
        1.0,
        0.0,
        0.0,
        0.0,
        0.0,
        2.220446049250313e-16,
        -1.0,
        0.0,
        0.0,
        1.0,
        2.220446049250313e-16,
        0.0,
        0.0,
        0.0,
        0.0,
        1.0
      ],
      "name": "Sketchfab_model"
    },
    {
      "children": [
        2
      ],
      "matrix": [
        0.009999999776482582,
        0.0,
        0.0,
        0.0,
        0.0,
        0.0,
        0.009999999776482582,
        0.0,
        0.0,
        -0.009999999776482582,
        0.0,
        0.0,
        0.0,
        0.0,
        0.0,
        1.0
      ],
      "name": "768b9790e423476d97d54de509cab82e.fbx"
    },
    {
      "children": [
        3,
        6,
        9,
        12,
        15,
        17,
        20,
        23,
        27,
        29,
        31
      ],
      "name": "RootNode"
    },
    {
      "children": [
        4
      ],
      "matrix": [
        -3.1780191813639345,
        -0.20658634927845224,
        -38.12996957611332,
        -0.0,
        92.02359094015912,
        57.83532861711296,
        -7.9832407402401016,
        -0.0,
        -86.75855619381565,
        138.93846451324276,
        6.478304816901549,
        -0.0,
        1091.0589599609375,
        1077.3814697265625,
        -146.3115692138672,
        1.0
      ],
      "name": "Sun.001"
    },
    {
      "children": [
        5
      ],
      "matrix": [
        1.0,
        0.0,
        0.0,
        0.0,
        0.0,
        2.220446049250313e-16,
        1.0,
        0.0,
        0.0,
        -1.0,
        2.220446049250313e-16,
        0.0,
        0.0,
        0.0,
        0.0,
        1.0
      ],
      "name": "Object_4"
    },
    {
      "name": "Object_5"
    },
    {
      "children": [
        7
      ],
      "matrix": [
        81.08357062984936,
        -1.1753215486057054,
        -58.515580772744734,
        0.0,
        -24.15168394803442,
        90.39838942812689,
        -35.282089300325254,
        0.0,
        53.3118246487904,
        42.74047918694564,
        73.01438756496484,
        0.0,
        -335.8929748535156,
        2133.79931640625,
        -713.9391479492188,
        1.0
      ],
      "name": "Sun"
    },
    {
      "children": [
        8
      ],
      "matrix": [
        1.0,
        0.0,
        0.0,
        0.0,
        0.0,
        2.220446049250313e-16,
        1.0,
        0.0,
        0.0,
        -1.0,
        2.220446049250313e-16,
        0.0,
        0.0,
        0.0,
        0.0,
        1.0
      ],
      "name": "Object_7"
    },
    {
      "name": "Object_8"
    },
    {
      "children": [
        10
      ],
      "matrix": [
        74.31060692500631,
        -29.42799676511752,
        -60.09930702453596,
        0.0,
        66.91736470033007,
        32.67931500520207,
        66.73925885379455,
        0.0,
        1.492193358321181e-05,
        -89.81122077548555,
        43.976637238615346,
        0.0,
        903.56103515625,
        879.03125,
        901.720458984375,
        1.0
      ],
      "name": "Hemi.003"
    },
    {
      "children": [
        11
      ],
      "matrix": [
        1.0,
        0.0,
        0.0,
        0.0,
        0.0,
        2.220446049250313e-16,
        1.0,
        0.0,
        0.0,
        -1.0,
        2.220446049250313e-16,
        0.0,
        0.0,
        0.0,
        0.0,
        1.0
      ],
      "name": "Object_10"
    },
    {
      "name": "Object_11"
    },
    {
      "children": [
        13
      ],
      "matrix": [
        -67.9066869400845,
        -66.91736706293656,
        -30.17859927474389,
        0.0,
        -61.15058371302073,
        74.31061046690861,
        -27.176107327415057,
        0.0,
        40.611430648315164,
        -4.512409093504016e-06,
        -91.38222023357838,
        0.0,
        -1242.548828125,
        1915.8739013671875,
        -703.0383911132813,
        1.0
      ],
      "name": "Hemi.000"
    },
    {
      "children": [
        14
      ],
      "matrix": [
        1.0,
        0.0,
        0.0,
        0.0,
        0.0,
        2.220446049250313e-16,
        1.0,
        0.0,
        0.0,
        -1.0,
        2.220446049250313e-16,
        0.0,
        0.0,
        0.0,
        0.0,
        1.0
      ],
      "name": "Object_13"
    },
    {
      "name": "Object_14"
    },
    {
      "children": [
        16
      ],
      "matrix": [
        100.0,
        0.0,
        0.0,
        0.0,
        0.0,
        99.99999999999866,
        1.6292067073209114e-05,
        0.0,
        0.0,
        -1.6292067073209114e-05,
        99.99999999999866,
        0.0,
        0.0,
        -11.9706449508667,
        0.0,
        1.0
      ],
      "name": "polySurface118.001"
    },
    {
      "mesh": 0,
      "name": "polySurface118.001_metal_0"
    },
    {
      "children": [
        18
      ],
      "matrix": [
        99.74333514817675,
        -1.075366978746419,
        7.078889699628657,
        0.0,
        7.092426673482985,
        28.3998324750416,
        -95.61980443020597,
        0.0,
        -0.9821290887336704,
        95.87645437688683,
        28.40321186853285,
        0.0,
        72.4585189819336,
        1136.4249267578125,
        -1159.5618896484375,
        1.0
      ],
      "name": "Hemi.002"
    },
    {
      "children": [
        19
      ],
      "matrix": [
        1.0,
        0.0,
        0.0,
        0.0,
        0.0,
        2.220446049250313e-16,
        1.0,
        0.0,
        0.0,
        -1.0,
        2.220446049250313e-16,
        0.0,
        0.0,
        0.0,
        0.0,
        1.0
      ],
      "name": "Object_18"
    },
    {
      "name": "Object_19"
    },
    {
      "children": [
        21
      ],
      "matrix": [
        74.31060440200525,
        -66.91736750208122,
        -8.990941324782388e-06,
        0.0,
        66.91736750208037,
        74.31060440200577,
        -1.1001389310649692e-05,
        0.0,
        1.4043062955217632e-05,
        2.1586976411603446e-06,
        99.99999999999899,
        0.0,
        903.56103515625,
        1915.8748779296875,
        408.4646301269531,
        1.0
      ],
      "name": "Hemi.001"
    },
    {
      "children": [
        22
      ],
      "matrix": [
        1.0,
        0.0,
        0.0,
        0.0,
        0.0,
        2.220446049250313e-16,
        1.0,
        0.0,
        0.0,
        -1.0,
        2.220446049250313e-16,
        0.0,
        0.0,
        0.0,
        0.0,
        1.0
      ],
      "name": "Object_21"
    },
    {
      "name": "Object_22"
    },
    {
      "children": [
        24,
        25,
        26
      ],
      "matrix": [
        100.0,
        0.0,
        0.0,
        0.0,
        0.0,
        99.99999999999866,
        1.6292067073209114e-05,
        0.0,
        0.0,
        -1.6292067073209114e-05,
        99.99999999999866,
        0.0,
        0.0,
        0.0,
        0.0,
        1.0
      ],
      "name": "polySurface118"
    },
    {
      "mesh": 1,
      "name": "polySurface118_metal_0"
    },
    {
      "mesh": 2,
      "name": "polySurface118_metal_0"
    },
    {
      "mesh": 3,
      "name": "polySurface118_metal_0"
    },
    {
      "children": [
        28
      ],
      "matrix": [
        100.0,
        0.0,
        0.0,
        0.0,
        0.0,
        99.99999999999866,
        1.6292067073209114e-05,
        0.0,
        0.0,
        -1.6292067073209114e-05,
        99.99999999999866,
        0.0,
        0.0,
        0.0,
        0.0,
        1.0
      ],
      "name": "polySurface661 polySurface258 can"
    },
    {
      "mesh": 4,
      "name": "polySurface661 polySurface258 can_can_0"
    },
    {
      "children": [
        30
      ],
      "matrix": [
        114.431884765625,
        0.0,
        0.0,
        0.0,
        0.0,
        114.43188476562348,
        1.8643321045327876e-05,
        0.0,
        0.0,
        -1.8643321045327876e-05,
        114.43188476562348,
        0.0,
        0.0,
        0.0,
        0.0,
        1.0
      ],
      "name": "polySurface847"
    },
    {
      "mesh": 5,
      "name": "polySurface847_metal_0"
    },
    {
      "children": [
        32
      ],
      "matrix": [
        -2361.7756436783534,
        2.6312841672806977,
        509.13016689508413,
        0.0,
        509.1330353203561,
        -2.137890174222895,
        2361.799998891059,
        0.0,
        3.022730521177941,
        2416.0452286802165,
        1.5353829246222084,
        0.0,
        5.547761917114258,
        1857.2015380859375,
        -4.03444766998291,
        1.0
      ],
      "name": "BezierCircle"
    },
    {
      "children": [
        33
      ],
      "matrix": [
        0.06016198722136169,
        -0.017794652528191925,
        -0.015747263831449015,
        0.0,
        0.017228877269265697,
        0.0621888804942031,
        -0.004451949630742539,
        0.0,
        0.016364350491096018,
        -5.3637581678247244e-05,
        0.06258016108751129,
        0.0,
        -0.009092211723327637,
        -0.0057525634765625,
        0.2664622366428375,
        1.0
      ],
      "name": "Camera"
    },
    {
      "name": "Object_33"
    }
  ],
  "samplers": [
    {
      "magFilter": 9729,
      "minFilter": 9987,
      "wrapS": 10497,
      "wrapT": 10497
    }
  ],
  "scene": 0,
  "scenes": [
    {
      "name": "Sketchfab_Scene",
      "nodes": [
        0
      ]
    }
  ],
  "textures": [
    {
      "sampler": 0,
      "source": 0
    }
  ]
}
