{
  "accessors": [
    {
      "bufferView": 2,
      "componentType": 5126,
      "count": 12524,
      "max": [
        28.810211181640625,
        6.463661193847656,
        31.465572357177734
      ],
      "min": [
        -7.052277565002441,
        -8.556974411010742,
        -0.7841815948486328
      ],
      "type": "VEC3"
    },
    {
      "bufferView": 2,
      "byteOffset": 150288,
      "componentType": 5126,
      "count": 12524,
      "max": [
        0.9999740123748779,
        0.9999340176582336,
        0.9999541640281677
      ],
      "min": [
        -0.9999741315841675,
        -0.9998798966407776,
        -0.9954076409339905
      ],
      "type": "VEC3"
    },
    {
      "bufferView": 1,
      "componentType": 5126,
      "count": 12524,
      "max": [
        0.7075638771057129,
        0.9713058471679688
      ],
      "min": [
        0.06778550893068314,
        0.5936306118965149
      ],
      "type": "VEC2"
    },
    {
      "bufferView": 0,
      "componentType": 5125,
      "count": 21342,
      "type": "SCALAR"
    },
    {
      "bufferView": 2,
      "byteOffset": 300576,
      "componentType": 5126,
      "count": 65534,
      "max": [
        28.463176727294922,
        3.1240367889404297,
        31.352100372314453
      ],
      "min": [
        -7.263075351715088,
        -11.417426109313965,
        -2.8534717559814453
      ],
      "type": "VEC3"
    },
    {
      "bufferView": 2,
      "byteOffset": 1086984,
      "componentType": 5126,
      "count": 65534,
      "max": [
        1.0,
        0.9986123442649841,
        0.998546302318573
      ],
      "min": [
        -1.0,
        -0.9999631643295288,
        -0.999993085861206
      ],
      "type": "VEC3"
    },
    {
      "bufferView": 1,
      "byteOffset": 100192,
      "componentType": 5126,
      "count": 65534,
      "max": [
        0.9093601703643799,
        1.0
      ],
      "min": [
        0.0,
        0.09223371744155884
      ],
      "type": "VEC2"
    },
    {
      "bufferView": 0,
      "byteOffset": 85368,
      "componentType": 5125,
      "count": 102504,
      "type": "SCALAR"
    },
    {
      "bufferView": 2,
      "byteOffset": 1873392,
      "componentType": 5126,
      "count": 21596,
      "max": [
        28.463176727294922,
        3.1240358352661133,
        31.352100372314453
      ],
      "min": [
        -7.263075351715088,
        -11.417426109313965,
        -2.8534717559814453
      ],
      "type": "VEC3"
    },
    {
      "bufferView": 2,
      "byteOffset": 2132544,
      "componentType": 5126,
      "count": 21596,
      "max": [
        1.0,
        0.9986122846603394,
        0.9985222816467285
      ],
      "min": [
        -1.0,
        -0.9999631643295288,
        -0.999993085861206
      ],
      "type": "VEC3"
    },
    {
      "bufferView": 1,
      "byteOffset": 624464,
      "componentType": 5126,
      "count": 21596,
      "max": [
        0.9093601703643799,
        0.9999862313270569
      ],
      "min": [
        8.709377219418002e-09,
        0.0966377854347229
      ],
      "type": "VEC2"
    },
    {
      "bufferView": 0,
      "byteOffset": 495384,
      "componentType": 5125,
      "count": 33432,
      "type": "SCALAR"
    },
    {
      "bufferView": 2,
      "byteOffset": 2391696,
      "componentType": 5126,
      "count": 65532,
      "max": [
        28.77532958984375,
        35.29386901855469,
        35.92316818237305
      ],
      "min": [
        -7.575231552124023,
        -20.075864791870117,
        -0.8460656404495239
      ],
      "type": "VEC3"
    },
    {
      "bufferView": 2,
      "byteOffset": 3178080,
      "componentType": 5126,
      "count": 65532,
      "max": [
        1.0,
        0.9999979734420776,
        0.9999972581863403
      ],
      "min": [
        -1.0,
        -0.9999946355819702,
        -0.9999972581863403
      ],
      "type": "VEC3"
    },
    {
      "bufferView": 1,
      "byteOffset": 797232,
      "componentType": 5126,
      "count": 65532,
      "max": [
        1.0,
        1.0
      ],
      "min": [
        0.0,
        0.0007725954055786133
      ],
      "type": "VEC2"
    },
    {
      "bufferView": 0,
      "byteOffset": 629112,
      "componentType": 5125,
      "count": 321105,
      "type": "SCALAR"
    },
    {
      "bufferView": 2,
      "byteOffset": 3964464,
      "componentType": 5126,
      "count": 65533,
      "max": [
        28.54547882080078,
        35.29386901855469,
        25.144628524780273
      ],
      "min": [
        -7.345378875732422,
        -23.67654037475586,
        -1.5751875638961792
      ],
      "type": "VEC3"
    },
    {
      "bufferView": 2,
      "byteOffset": 4750860,
      "componentType": 5126,
      "count": 65533,
      "max": [
        0.9999958276748657,
        0.9998350739479065,
        0.9996631145477295
      ],
      "min": [
        -0.9999958276748657,
        -0.9996625185012817,
        -0.9999039173126221
      ],
      "type": "VEC3"
    },
    {
      "bufferView": 1,
      "byteOffset": 1321488,
      "componentType": 5126,
      "count": 65533,
      "max": [
        0.9740389585494995,
        0.9121320843696594
      ],
      "min": [
        0.018973227590322495,
        0.02192455530166626
      ],
      "type": "VEC2"
    },
    {
      "bufferView": 0,
      "byteOffset": 1913532,
      "componentType": 5125,
      "count": 159201,
      "type": "SCALAR"
    },
    {
      "bufferView": 2,
      "byteOffset": 5537256,
      "componentType": 5126,
      "count": 65532,
      "max": [
        28.609859466552734,
        24.19853401184082,
        28.11183738708496
      ],
      "min": [
        -7.409757614135742,
        -23.67654037475586,
        -9.156598091125488
      ],
      "type": "VEC3"
    },
    {
      "bufferView": 2,
      "byteOffset": 6323640,
      "componentType": 5126,
      "count": 65532,
      "max": [
        0.9999983310699463,
        0.9999926090240479,
        0.9999731779098511
      ],
      "min": [
        -0.9999983310699463,
        -0.9999946355819702,
        -0.9999743700027466
      ],
      "type": "VEC3"
    },
    {
      "bufferView": 1,
      "byteOffset": 1845752,
      "componentType": 5126,
      "count": 65532,
      "max": [
        0.9984818696975708,
        0.979942798614502
      ],
      "min": [
        0.0489274300634861,
        0.00251162052154541
      ],
      "type": "VEC2"
    },
    {
      "bufferView": 0,
      "byteOffset": 2550336,
      "componentType": 5125,
      "count": 124443,
      "type": "SCALAR"
    },
    {
      "bufferView": 2,
      "byteOffset": 7110024,
      "componentType": 5126,
      "count": 65532,
      "max": [
        28.656970977783203,
        19.533449172973633,
        31.123674392700195
      ],
      "min": [
        -7.4568681716918945,
        -17.813282012939453,
        -1.1033883094787598
      ],
      "type": "VEC3"
    },
    {
      "bufferView": 2,
      "byteOffset": 7896408,
      "componentType": 5126,
      "count": 65532,
      "max": [
        0.9999983310699463,
        0.9999979734420776,
        0.9999852180480957
      ],
      "min": [
        -0.9999983310699463,
        -0.9999946355819702,
        -0.9999743700027466
      ],
      "type": "VEC3"
    },
    {
      "bufferView": 1,
      "byteOffset": 2370008,
      "componentType": 5126,
      "count": 65532,
      "max": [
        0.9987772703170776,
        1.0
      ],
      "min": [
        0.0,
        0.0
      ],
      "type": "VEC2"
    },
    {
      "bufferView": 0,
      "byteOffset": 3048108,
      "componentType": 5125,
      "count": 320931,
      "type": "SCALAR"
    },
    {
      "bufferView": 2,
      "byteOffset": 8682792,
      "componentType": 5126,
      "count": 9737,
      "max": [
        28.656970977783203,
        11.507120132446289,
        31.123674392700195
      ],
      "min": [
        -7.4568681716918945,
        8.047853469848633,
        24.67424201965332
      ],
      "type": "VEC3"
    },
    {
      "bufferView": 2,
      "byteOffset": 8799636,
      "componentType": 5126,
      "count": 9737,
      "max": [
        0.9999936819076538,
        0.9999979734420776,
        0.9999852180480957
      ],
      "min": [
        -0.9999938011169434,
        -0.9999819993972778,
        -0.999972939491272
      ],
      "type": "VEC3"
    },
    {
      "bufferView": 1,
      "byteOffset": 2894264,
      "componentType": 5126,
      "count": 9737,
      "max": [
        0.9986693263053894,
        0.8251162767410278
      ],
      "min": [
        0.0,
        0.0026357173919677734
      ],
      "type": "VEC2"
    },
    {
      "bufferView": 0,
      "byteOffset": 4331832,
      "componentType": 5125,
      "count": 47256,
      "type": "SCALAR"
    },
    {
      "bufferView": 2,
      "byteOffset": 8916480,
      "componentType": 5126,
      "count": 2214,
      "max": [
        29.086769104003906,
        34.667118072509766,
        25.383026123046875
      ],
      "min": [
        -7.8866729736328125,
        5.285593032836914,
        0.8211859464645386
      ],
      "type": "VEC3"
    },
    {
      "bufferView": 2,
      "byteOffset": 8943048,
      "componentType": 5126,
      "count": 2214,
      "max": [
        1.0,
        0.999845027923584,
        0.9999163150787354
      ],
      "min": [
        -1.0,
        -0.9998444318771362,
        -0.9999163150787354
      ],
      "type": "VEC3"
    },
    {
      "bufferView": 1,
      "byteOffset": 2972160,
      "componentType": 5126,
      "count": 2214,
      "max": [
        0.8125181794166565,
        0.7936998605728149
      ],
      "min": [
        0.0031440830789506435,
        0.18642669916152954
      ],
      "type": "VEC2"
    },
    {
      "bufferView": 0,
      "byteOffset": 4520856,
      "componentType": 5125,
      "count": 11052,
      "type": "SCALAR"
    }
  ],
  "asset": {
    "extras": {
      "author": "dopaminecat (https://sketchfab.com/dopaminecat)",
      "license": "CC-BY-4.0 (http://creativecommons.org/licenses/by/4.0/)",
      "source": "https://sketchfab.com/3d-models/verito-solid-wood-arm-chair-free-download-047ef366f63c4f269e40b430c57fd3fa",
      "title": "Verito solid wood arm chair (Free download)"
    },
    "generator": "Sketchfab-11.36.1",
    "version": "2.0"
  },
  "bufferViews": [
    {
      "buffer": 0,
      "byteLength": 4565064,
      "name": "floatBufferViews",
      "target": 34963
    },
    {
      "buffer": 0,
      "byteLength": 2989872,
      "byteOffset": 4565064,
      "byteStride": 8,
      "name": "floatBufferViews",
      "target": 34962
    },
    {
      "buffer": 0,
      "byteLength": 8969616,
      "byteOffset": 7554936,
      "byteStride": 12,
      "name": "floatBufferViews",
      "target": 34962
    }
  ],
  "buffers": [
    {
      "byteLength": 16524552,
      "uri": "scene.bin"
    }
  ],
  "extensionsUsed": [
    "KHR_texture_transform"
  ],
  "images": [
    {
      "uri": "textures/Wood_Support_baseColor.jpeg"
    },
    {
      "uri": "textures/Back_Rest_Cusion_baseColor.png"
    }
  ],
  "materials": [
    {
      "doubleSided": true,
      "name": "Wood_Support",
      "pbrMetallicRoughness": {
        "baseColorTexture": {
          "index": 0
        },
        "metallicFactor": 0.0,
        "roughnessFactor": 0.4
      }
    },
    {
      "doubleSided": true,
      "name": "Wood_Base",
      "pbrMetallicRoughness": {
        "baseColorTexture": {
          "index": 0
        },
        "metallicFactor": 0.0,
        "roughnessFactor": 0.4
      }
    },
    {
      "doubleSided": true,
      "name": "Back_Rest_Cusion",
      "pbrMetallicRoughness": {
        "baseColorTexture": {
          "extensions": {
            "KHR_texture_transform": {
              "scale": [
                20,
                20
              ]
            }
          },
          "index": 1
        },
        "metallicFactor": 0.0,
        "roughnessFactor": 0.5
      }
    },
    {
      "doubleSided": true,
      "name": "Seat_Cusion",
      "pbrMetallicRoughness": {
        "baseColorTexture": {
          "extensions": {
            "KHR_texture_transform": {
              "scale": [
                14,
                14
              ]
            }
          },
          "index": 1
        },
        "metallicFactor": 0.0,
        "roughnessFactor": 0.5
      }
    }
  ],
  "meshes": [
    {
      "name": "Object_0",
      "primitives": [
        {
          "attributes": {
            "NORMAL": 1,
            "POSITION": 0,
            "TEXCOORD_0": 2
          },
          "indices": 3,
          "material": 3,
          "mode": 4
        }
      ]
    },
    {
      "name": "Object_1",
      "primitives": [
        {
          "attributes": {
            "NORMAL": 5,
            "POSITION": 4,
            "TEXCOORD_0": 6
          },
          "indices": 7,
          "material": 1,
          "mode": 4
        }
      ]
    },
    {
      "name": "Object_2",
      "primitives": [
        {
          "attributes": {
            "NORMAL": 9,
            "POSITION": 8,
            "TEXCOORD_0": 10
          },
          "indices": 11,
          "material": 1,
          "mode": 4
        }
      ]
    },
    {
      "name": "Object_3",
      "primitives": [
        {
          "attributes": {
            "NORMAL": 13,
            "POSITION": 12,
            "TEXCOORD_0": 14
          },
          "indices": 15,
          "material": 0,
          "mode": 4
        }
      ]
    },
    {
      "name": "Object_4",
      "primitives": [
        {
          "attributes": {
            "NORMAL": 17,
            "POSITION": 16,
            "TEXCOORD_0": 18
          },
          "indices": 19,
          "material": 0,
          "mode": 4
        }
      ]
    },
    {
      "name": "Object_5",
      "primitives": [
        {
          "attributes": {
            "NORMAL": 21,
            "POSITION": 20,
            "TEXCOORD_0": 22
          },
          "indices": 23,
          "material": 0,
          "mode": 4
        }
      ]
    },
    {
      "name": "Object_6",
      "primitives": [
        {
          "attributes": {
            "NORMAL": 25,
            "POSITION": 24,
            "TEXCOORD_0": 26
          },
          "indices": 27,
          "material": 0,
          "mode": 4
        }
      ]
    },
    {
      "name": "Object_7",
      "primitives": [
        {
          "attributes": {
            "NORMAL": 29,
            "POSITION": 28,
            "TEXCOORD_0": 30
          },
          "indices": 31,
          "material": 0,
          "mode": 4
        }
      ]
    },
    {
      "name": "Object_8",
      "primitives": [
        {
          "attributes": {
            "NORMAL": 33,
            "POSITION": 32,
            "TEXCOORD_0": 34
          },
          "indices": 35,
          "material": 2,
          "mode": 4
        }
      ]
    }
  ],
  "nodes": [
    {
      "children": [
        1
      ],
      "matrix": [
        1.0,
        0.0,
        0.0,
        0.0,
        0.0,
        2.220446049250313e-16,
        -1.0,
        0.0,
        0.0,
        1.0,
        2.220446049250313e-16,
        0.0,
        0.0,
        0.0,
        0.0,
        1.0
      ],
      "name": "Sketchfab_model"
    },
    {
      "children": [
        2
      ],
      "name": "root"
    },
    {
      "children": [
        3
      ],
      "matrix": [
        1.0,
        0.0,
        0.0,
        0.0,
        0.0,
        2.220446049250313e-16,
        1.0,
        0.0,
        0.0,
        -1.0,
        2.220446049250313e-16,
        0.0,
        0.0,
        0.0,
        0.0,
        1.0
      ],
      "name": "GLTF_SceneRootNode"
    },
    {
      "children": [
        4,
        5,
        6,
        7,
        8,
        9,
        10,
        11,
        12
      ],
      "matrix": [
        2.941711187362671,
        0.0,
        -0.0,
        0.0,
        -0.0,
        2.778183366687744,
        -0.9671418167112347,
        0.0,
        0.0,
        0.9671418167112347,
        2.778183366687744,
        0.0,
        -31.26275634765625,
        43.36106491088867,
        -42.91007614135742,
        1.0
      ],
      "name": "Cylinder.005_0"
    },
    {
      "mesh": 0,
      "name": "Object_4"
    },
    {
      "mesh": 1,
      "name": "Object_5"
    },
    {
      "mesh": 2,
      "name": "Object_6"
    },
    {
      "mesh": 3,
      "name": "Object_7"
    },
    {
      "mesh": 4,
      "name": "Object_8"
    },
    {
      "mesh": 5,
      "name": "Object_9"
    },
    {
      "mesh": 6,
      "name": "Object_10"
    },
    {
      "mesh": 7,
      "name": "Object_11"
    },
    {
      "mesh": 8,
      "name": "Object_12"
    }
  ],
  "samplers": [
    {
      "magFilter": 9729,
      "minFilter": 9987,
      "wrapS": 10497,
      "wrapT": 10497
    }
  ],
  "scene": 0,
  "scenes": [
    {
      "name": "Sketchfab_Scene",
      "nodes": [
        0
      ]
    }
  ],
  "textures": [
    {
      "sampler": 0,
      "source": 0
    },
    {
      "sampler": 0,
      "source": 1
    }
  ]
}
