{
  "accessors": [
    {
      "bufferView": 2,
      "componentType": 5126,
      "count": 65532,
      "max": [
        334.045654296875,
        298.61895751953125,
        899.39984130859375
      ],
      "min": [
        -312.39852905273438,
        -279.644287109375,
        1.0487899780273438
      ],
      "type": "VEC3"
    },
    {
      "bufferView": 2,
      "byteOffset": 786384,
      "componentType": 5126,
      "count": 65532,
      "max": [
        0.9999774694442749,
        0.99999541044235229,
        0.99999672174453735
      ],
      "min": [
        -0.99999696016311646,
        -0.9999811053276062,
        -0.99999761581420898
      ],
      "type": "VEC3"
    },
    {
      "bufferView": 3,
      "componentType": 5126,
      "count": 65532,
      "max": [
        0.99999678134918213,
        0.9997107982635498,
        0.99934101104736328,
        1
      ],
      "min": [
        -0.99911147356033325,
        -0.99981051683425903,
        -0.99986410140991211,
        1
      ],
      "type": "VEC4"
    },
    {
      "bufferView": 1,
      "componentType": 5126,
      "count": 65532,
      "max": [
        0.98100101947784424,
        0.99799597263336182
      ],
      "min": [
        0.0019580000080168247,
        0.0019920000340789557
      ],
      "type": "VEC2"
    },
    {
      "bufferView": 0,
      "componentType": 5125,
      "count": 309648,
      "max": [
        65531
      ],
      "min": [
        0
      ],
      "type": "SCALAR"
    },
    {
      "bufferView": 2,
      "byteOffset": 1572768,
      "componentType": 5126,
      "count": 65532,
      "max": [
        334.04132080078125,
        298.61895751953125,
        898.83648681640625
      ],
      "min": [
        -308.61843872070312,
        -279.644287109375,
        1.0420060157775879
      ],
      "type": "VEC3"
    },
    {
      "bufferView": 2,
      "byteOffset": 2359152,
      "componentType": 5126,
      "count": 65532,
      "max": [
        0.99999898672103882,
        0.99998271465301514,
        0.99999111890792847
      ],
      "min": [
        -0.99998784065246582,
        -0.99998003244400024,
        -0.99999833106994629
      ],
      "type": "VEC3"
    },
    {
      "bufferView": 3,
      "byteOffset": 1048512,
      "componentType": 5126,
      "count": 65532,
      "max": [
        0.99999731779098511,
        0.99998456239700317,
        0.9992174506187439,
        1
      ],
      "min": [
        -0.99986249208450317,
        -0.99999147653579712,
        -0.9991830587387085,
        1
      ],
      "type": "VEC4"
    },
    {
      "bufferView": 1,
      "byteOffset": 524256,
      "componentType": 5126,
      "count": 65532,
      "max": [
        0.98100101947784424,
        0.99800300598144531
      ],
      "min": [
        0.0019580000080168247,
        0.0019920000340789557
      ],
      "type": "VEC2"
    },
    {
      "bufferView": 0,
      "byteOffset": 1238592,
      "componentType": 5125,
      "count": 268596,
      "max": [
        65531
      ],
      "min": [
        0
      ],
      "type": "SCALAR"
    },
    {
      "bufferView": 2,
      "byteOffset": 3145536,
      "componentType": 5126,
      "count": 35450,
      "max": [
        333.960205078125,
        298.19393920898438,
        899.325927734375
      ],
      "min": [
        -311.92959594726562,
        -278.32781982421875,
        0.70772099494934082
      ],
      "type": "VEC3"
    },
    {
      "bufferView": 2,
      "byteOffset": 3570936,
      "componentType": 5126,
      "count": 35450,
      "max": [
        0.99999898672103882,
        0.99998271465301514,
        0.99999111890792847
      ],
      "min": [
        -0.99998998641967773,
        -0.99998378753662109,
        -0.99997901916503906
      ],
      "type": "VEC3"
    },
    {
      "bufferView": 3,
      "byteOffset": 2097024,
      "componentType": 5126,
      "count": 35450,
      "max": [
        0.99994301795959473,
        0.99987876415252686,
        0.99945104122161865,
        1
      ],
      "min": [
        -0.99991524219512939,
        -0.99995267391204834,
        -0.9999505877494812,
        -1
      ],
      "type": "VEC4"
    },
    {
      "bufferView": 1,
      "byteOffset": 1048512,
      "componentType": 5126,
      "count": 35450,
      "max": [
        0.98100101947784424,
        0.99800801277160645
      ],
      "min": [
        0.0019580000080168247,
        0.0019920000340789557
      ],
      "type": "VEC2"
    },
    {
      "bufferView": 0,
      "byteOffset": 2312976,
      "componentType": 5125,
      "count": 89136,
      "max": [
        35449
      ],
      "min": [
        0
      ],
      "type": "SCALAR"
    }
  ],
  "asset": {
    "extras": {
      "author": "IUPUI Center for Digital Scholarship (https://sketchfab.com/iupuicds)",
      "license": "CC-BY-4.0 (http://creativecommons.org/licenses/by/4.0/)",
      "source": "https://sketchfab.com/3d-models/lounge-chair-d66764db18324c718cfe4a3bca40433d",
      "title": "Lounge Chair"
    },
    "generator": "Sketchfab-5.84.1",
    "version": "2.0"
  },
  "bufferViews": [
    {
      "buffer": 0,
      "byteLength": 2669520,
      "byteOffset": 0,
      "name": "floatBufferViews",
      "target": 34963
    },
    {
      "buffer": 0,
      "byteLength": 1332112,
      "byteOffset": 2669520,
      "byteStride": 8,
      "name": "floatBufferViews",
      "target": 34962
    },
    {
      "buffer": 0,
      "byteLength": 3996336,
      "byteOffset": 4001632,
      "byteStride": 12,
      "name": "floatBufferViews",
      "target": 34962
    },
    {
      "buffer": 0,
      "byteLength": 2664224,
      "byteOffset": 7997968,
      "byteStride": 16,
      "name": "floatBufferViews",
      "target": 34962
    }
  ],
  "buffers": [
    {
      "byteLength": 10662192,
      "uri": "scene.bin"
    }
  ],
  "images": [
    {
      "uri": "textures/material_0_baseColor.png"
    }
  ],
  "materials": [
    {
      "doubleSided": true,
      "name": "material_0",
      "pbrMetallicRoughness": {
        "baseColorFactor": [
          1,
          1,
          1,
          1
        ],
        "baseColorTexture": {
          "index": 0,
          "texCoord": 0
        },
        "metallicFactor": 0,
        "roughnessFactor": 0.5078125
      }
    }
  ],
  "meshes": [
    {
      "primitives": [
        {
          "attributes": {
            "NORMAL": 1,
            "POSITION": 0,
            "TANGENT": 2,
            "TEXCOORD_0": 3
          },
          "indices": 4,
          "material": 0,
          "mode": 4
        }
      ]
    },
    {
      "primitives": [
        {
          "attributes": {
            "NORMAL": 6,
            "POSITION": 5,
            "TANGENT": 7,
            "TEXCOORD_0": 8
          },
          "indices": 9,
          "material": 0,
          "mode": 4
        }
      ]
    },
    {
      "primitives": [
        {
          "attributes": {
            "NORMAL": 11,
            "POSITION": 10,
            "TANGENT": 12,
            "TEXCOORD_0": 13
          },
          "indices": 14,
          "material": 0,
          "mode": 4
        }
      ]
    }
  ],
  "nodes": [
    {
      "children": [
        1
      ],
      "name": "RootNode (gltf orientation matrix)",
      "rotation": [
        -0.70710678118654746,
        -0,
        -0,
        0.70710678118654757
      ]
    },
    {
      "children": [
        2
      ],
      "name": "RootNode (model correction matrix)"
    },
    {
      "children": [
        3,
        4,
        5
      ],
      "name": "IFD_LoungeChair_HR_Geometry.obj.cleaner.materialmerger.gles"
    },
    {
      "mesh": 0,
      "name": ""
    },
    {
      "mesh": 1,
      "name": ""
    },
    {
      "mesh": 2,
      "name": ""
    }
  ],
  "samplers": [
    {
      "magFilter": 9729,
      "minFilter": 9987,
      "wrapS": 10497,
      "wrapT": 10497
    }
  ],
  "scene": 0,
  "scenes": [
    {
      "name": "OSG_Scene",
      "nodes": [
        0
      ]
    }
  ],
  "textures": [
    {
      "sampler": 0,
      "source": 0
    }
  ]
}

